<mxfile host="app.diagrams.net" modified="2022-01-13T19:06:50.921Z" agent="5.0 (Windows NT 10.0; Win64; x64) AppleWebKit/537.36 (KHTML, like Gecko) Chrome/97.0.4692.71 Safari/537.36" etag="Mn52vfkXHkw-YIjFFyG3" version="16.2.6" type="github">
  <diagram id="Cq2rdPkPe1qCkYMKL3J1" name="Page-1">
    <mxGraphModel dx="1038" dy="579" grid="1" gridSize="10" guides="1" tooltips="1" connect="1" arrows="1" fold="1" page="1" pageScale="1" pageWidth="850" pageHeight="1100" math="0" shadow="0">
      <root>
        <mxCell id="0" />
        <mxCell id="1" parent="0" />
        <mxCell id="Uu7dBt2NGrK-YpvzXJLN-23" style="edgeStyle=orthogonalEdgeStyle;rounded=0;orthogonalLoop=1;jettySize=auto;html=1;entryX=0;entryY=0.5;entryDx=0;entryDy=0;" edge="1" parent="1" source="Uu7dBt2NGrK-YpvzXJLN-1" target="Uu7dBt2NGrK-YpvzXJLN-2">
          <mxGeometry relative="1" as="geometry" />
        </mxCell>
        <mxCell id="Uu7dBt2NGrK-YpvzXJLN-1" value="" style="shape=image;verticalLabelPosition=bottom;labelBackgroundColor=default;verticalAlign=top;aspect=fixed;imageAspect=0;image=data:image/png,iVBORw0KGgoAAAANSUhEUgAAAF0AAABRCAYAAACws6q4AAANT0lEQVR4nO2ca6xc1XXHf3ufx5xzZua+bXOxsePwMFg2xA2IpmmAqKS0FUmDmqqoVPmQULWEhqjpQ6VASIpokRvSEqVEjVDUD6hq0pQvoZgIqU2TElSaBmoSYly7gN/mvubO67z2ox/mXnOvwQSPz2Sm9vylLe2ZOWfvtf9nnbXXXnvtEdZayxA/Vch+C3AuYkh6HzAkvQ8Ykt4HDEnvA4ak9wFD0vuAIel9wJD0PsAtusErH8qR8tx4ls9+0unqvsJJdxwHIQRCiKKbPmtQOOnWWoQQaK2LbnoA0Z2mF24HrLUMY2hvjSHpfcC5MeMNGHpi088dbR8Q78UYA3COkN4dCiddCoMUYFki3XanDYMP0/WdPTAverV5sWfntCHP4E0unHShDAiLPLE4UkV3MSAYIE0XK0oH3Qt3tuLsfPcHHD3wXhRSSow5lc3rmB8A7PL7IN80SLbsCRUCuzRUYTiTt6+ImFLP/PRT/i7AtQowaOFjESeewVu1eeaCSTpk26XSP/QsDHCqksSKahjg6JSS66CUwVqL1voNpYhF1nLEM4ygFCwPt/thF7H4K5x0R1gcYZEYJAbjT5LJSaJGi1K7xnRc4/mFJnGlTKOlGEtmcdOjlI58l1puMblhralhyQhUgl87TOiWiRV4+RikOYkL0nhIXcYIiZEGiwemDNZFonFIkfkkW8tHePTDE0yb/cy3F5FWkjqS2KmCdbG2hGckjoVceuhIgixRihxQGpTGOCnKjU+Mabl0i8LNC6w2B77djcgk/3D/NhQQJXDd38WMx3v40j07COxaSgJEext3PgmvvLiPL99+EWULaQiquZ6DLvzbvy7w2O4aam1OdVEhZJ0wK2GMoeX5CKOBDIvCVREOMbFb56O3beMyp4b/uEELF9+kCG1QsoUvcrAe2tHkboKXj+G2ZnApY0WEJEVYF5lX0BIgLYSfnpkXYwzGGLx0GlEvsaENm9KcSgDRq4Lfv24HW23MhcqwIT3OepGwLjLUyxdwzUOzTFbhhi8c5aZH5njh2zXu+TDc+L5ZarOSGWcCNxnhaCg5XJrAywyOaSCYQ5gUQx1h2igR88efg5fbY2h8tDQ4KiFKIEyArILIQlI9jpOW8XWdheZGrrp0DWOJQdsRrDB4Zg5P10+Mabl0i8JJN8as0vQk90hlCCQsxIJfueco5639Pr+4A4Q2aE+Cvw5cB7dZw63NcmH7OI4CqUaZzDVf+0HM53dl/OF106hwApqLLLQPUVUzTNtXabmSJBjHhuNUIwdkTFmXuTSs4DLHuAZpU6xxEWT44mWSvE6t5OBOadbIBmNpSupElJMfcMt7I6Z5hdCtEY6UaPgeiXsyVQNk05e1fFnjtTNL4tZRgUd9zGV+ss7t1/88QQa4eUcAYcAVzPsljgUV6n4ILrh2gZobkKSW37hmE68suKzPXqIyOsJzO69gs5/zZ5+4DJscJlk4ht9OeNd0yA7vNXZ+bIrf+UiZRUezGEBbRBjlc9t1G3nqM+/hfevH2JDM8shvTRGo3Tzyuc3kjYN87YFr2DEF991xNZ/84Caaew/hZT5Cv9Ep6BbFk27iVSVzfYI8xZWGqbzJzl/fwvbtUPcBXUaopUCBkZTiBF8t4soYdJtLRgOunUx49s/PJyzDrTtfYiTezv1XzPJ7X885FI/y8Z17eOyOLYTCZ3N4mL+4eYQfp1fzqa/+O7MWTKII1TzV5hypbXPof/fwj7vhmQMNnrp3ggMtqEeXM20M37jzKm65p8Fzs/Dbf72HBx47hp1cizU5xqiTxpZ0zdFPbUVqjSHwAn5pfZ0NOmUkV6SOR+ukqVyikTIh9yJmZxNe27ePXFr2Hwc1dj47th/m2l/YxHMvvUBiJfgTrIkMl5zv8vCn3039tTrzQZO5ymXsfPQgtpTSak9w3kjMvnun2bVwPl/85wPYkQYineDpr/wLu26f5vHvJjz81WeQIgcDVmqEtAhpQBQbP+pJPL2zIu1MNEpYpNaIpRWnIkQ4HlKCj8Ilx1LqCOO6KF2ilW7AU/CqLDE3fgkSxdXr5mm0Z3gHESWraTYb+OEIGs1oVKFaNagmjFQDbCPFOG0SEeOnkrAED9xxPZ/+m+/z6Ceu5Mb7DhHikrlw6S9fzs/+5TGo50xMXIyxKZ4CKXKsNWB1Z+KUBnQxi6o+xF48NKAFCOvimHC1QKKF6/8QnHl8r4xRIQ3toRKfjS2P/zw2jxYOJSEQqk0U5MRNy+69hylVIDEZJTuDtAmZlBiRkQm46c7H+V5tG6NBzoKXMVuq4hu4fLqC7x7HG3VJshkc9yBCgLU51uqOWbG68wBWynkGDBS/ONJ6dUkyKsl/00SRkSJ0A1/P4+p50DUwNVIrWXQkUXIAt2XYGpTAWq4MDzAl93HD3c/w4OMHeeLBLTx3eIr3372Lp+5+D35rhodv28j1D/4Qr+Jx7R98m3q5wnf+1OG/7rqYh3/3Im6YcphM21y0LqQc/4i/+tJTvPTZd/LesRZfePIYF24M+N6fbOfxu6a5YLKKDSO+/uxBvvFH7+abn9nINesOsUYv4s+nq8YlziDFRBR95uiKu/cgpTwxuxs5DrWDbF3nYoUhc974nD0bYzOfmdjwP23D5Zsc/PmcuSpI5500j8zhtI+waW3KfsrYoMqFaYkP/ZzLt/bH/OjAWpg8TmPBp9LKef+N72JT2uZvdx/lSjHLcdsgboygRzazgSNIWSdLDP+RjVBRM3z86sv5+6cPEVQvJUteRZmAm6+fYtcTLzK5bg2H5xskWYBXXS378/dt6YqjnpMuSmUC45K22hhhaPkGLVYLX1ExofJxQp8FGaNSxdjEFmYa+6mUzifAkqcZ7dYCo2sl8aKmbdei0ya+zlgzBYfnW0QTDiQZs3o7U9EcTprRdOaxwQVMSp9jCwnrq5bX0pis3WTtxnW0Zw8izCRV20QkGhNNIdqzeNPvoD4fo0QdGc1QkiPIlrdK7m5J7/nGdLDo0XZTtKdxjSQyBi2zVfc4WBI/BWUp5xEWyVzrZUazkMTMEKgmwoEoEDDv0wpCLlo8SluM0SgbmjFMhBLRDLAi4jy7iI4lEkVVKnRrkRzFpGupJyXGTYwOwcwcx2EUT1Vo+TFe4FPJZmkFJfLaKziijJAam5XIrcQrKNRcOOm5Ey/FxgVgiZ2jaGFBKJTtdGlYHZPOXY0RgNVomSHQlAxor4UUkpbnAQYjNZmTEdqUw1UHI2eQSzF5bUHKGCMMjm2A1GAcjJA4pBgnRlpwRIwWBi0cXAO+baFLNTwrMY5g3rf4ut0RzLY6QTsAUpTLiXGdCQonvRoHBWTtem/ynfMm37/ZdadCdJr9vTXOhPbCSW9KDWhctycBzIHBT9p4eSsUzoybHgfAV27HZADScso6dD6vrL/d6063fib9L9eFsRixvNO49bS4WUbh3suPD3Ts4dman75yXFs2BF21Ubima9mLvPTOQCWdto31AHli90bjY4VCYAAJp9wUL0oSGKi8Fyhewy0ujlW4BrTwYMnPF9YgsbgmQ7kpyskRJgR8Bjnfpng/XVP88RcBIMkVmEoEmcKaDKRLMBLAYoMkB1uaIGmlRM7r6U6DmMjaw4CXfJt1+Sb11dcJOikbqVvmQ7d+HosADBk+H/jo3eytN7npU1/kqafr3PvlJ0jlsgu4UttX5rucnPvydq47ud49is97QWMtYIuLQTukaFvCOHUiXyKlwjMJPg7JyMWct6HCPz10L5Gqcc1VH2TXt77Dr37gZ3qTJ1/AuM6KtLqs7TNmjrA44uLYDBw50Cf8eraCKfIsqURirUSpjDzPX99/1RopJYFNmDUBxlS4+bOP8M27PkI+wKf7/l9puuu6RFG0ymxIKUlyl7Exya997Cvc/5u3kA/4qIr3XpbIsAUmf2ohcWyO1RFO4LNv3xG2XzJOe6SCOv4icB0v7A3ZulFy0SbIswjpCqRsw9KOjy3IlS3CZBW+In3+lVqn4QLtqQUca3GNQftjtDzJ3pdepVoa48rNo8y2azSzMWp5E99r4cQO4yNVfC/D5AphHbQsRglWjuuKTaNdtVH8maOlR1jkFGbEUntWI9MFptpQ3RDhaEtrsUYFTSiajIc5Rrhor4QVOUplOEtnnmRRqlWAjhZ/EqMHpHvWYhAo6SKtQUlJwy0T0omLW2ERotUJA5gSYBAYJAppHVgRFR8EFE565rZ67q5lgE+C9jufl3uyAM7rfrQGtBv3TA4Y6+quwkl/9Mm5c+avR3bcOt3VfYWT/sRzBxFC4OBgROeVllaesg5ghFlVf7vXnW79TPo/uS4tPMi2rjgqPrSr885fj5AX3fRZgx5MpB2P+FQmZqWHerp2/0RaRx+X96/LP0jxdCNArD5JuhJi5fen6X2duLef0doTfXf/4HsQe1GAwNrBDDYNAs4NN2PAULymC3vyOfUhTkLxE6nRAxvHHhT0LJ5e6BHzsww9O4lxrqxKu8GQmT6g8Hj6ED8ZQ03vA4ak9wFD0vuAIel9wJD0PmBIeh8wJL0PGJLeBwxJ7wOGpPcBQ9L7gP8Dz5HIpH5LnFcAAAAASUVORK5CYII=;" vertex="1" parent="1">
          <mxGeometry x="80" y="110" width="93" height="81" as="geometry" />
        </mxCell>
        <mxCell id="Uu7dBt2NGrK-YpvzXJLN-2" value="" style="shape=image;verticalLabelPosition=bottom;labelBackgroundColor=default;verticalAlign=top;aspect=fixed;imageAspect=0;image=data:image/png,iVBORw0KGgoAAAANSUhEUgAAADAAAAA/CAYAAACmVEtSAAAFq0lEQVRoge1aX0hTbxh+3Y4nMyzSDPyDWNomJXahhYH0B5oOYRpRmWiSddvAuu4iSSKdGpIJorXdJEFOLW8CDcELtZuCSJioaSBGshmYOLXZ87sIv5+nc+bZOTtrBntgcN7zPud8z7Od837/FgUA9A9DF24BwSJiINyIGAg3IgbCjX/eAKfFTQYGBqinp4dcLhfxPE+5ublUVlZGx48f1+L22wNBwOv1oqKiAkQk+uj1ety/fz+Y2weEoAxcunRJUvzWT1NTk1ZaJaHaQG9vr0BoUVERHA4HWltbcfToUXae53lMT09rqVkA1QZKSkqYyJKSEkHO4/EgMzOT5RsaGoIW6g+qqtCvX7/I5XKx+M6dO4J8fHw8VVdXs/jTp09qmgkIqstoVFTUtnlsGaUjhCN2VQZ0Oh0ZjUYWNzc3C/Iej4fsdjuLs7OzVcqTRxRUfj2vXr2iCxcusNhkMlFFRQUtLy9Ta2sre8R4nieXy0WHDh0S3aOnp4f6+/tpenqa4uLiKD8/nyorKyW5fhHMCxRIGW1sbBRdt7CwAJPJJMnfu3cvnj59GrCGoAysrKz47ciio6NRV1cnusbr9eLkyZOyxru7u0NvYBMDAwOwWCwgIuh0OlitVnz8+FGS29TUJBBaXl6O58+fw2azISUlhZ1PSkrC0tLS3zEAAG/evGEd1+LioiRnY2MDOTk5TKTVahXkJyYmEB8fr+hX0Gw0urGxwY5//vwpyXG73TQzM0NERBzH0e3btwV5g8FAFouFxePj47LtamJgcXGR3r9/T0S/O7mRkRFaX18X8fR6PXHc/wNgyBRAufwmSTU8Hg9qampw8OBB0UtoNBrR3NwsusZoNDLOrVu3BDmXyyV4hJxOp6wG1QbGx8dhMBhkq4nZbMaPHz8wOjqKs2fPQqfTCfJlZWWw2+14+PAhkpOT2fnk5OTQvcTfvn1DWlqarPjNT0ZGBjiOY3FsbGx4y+jNmzcFjaWlpaGtrQ0fPnzA2NgY7t69i927d4tEpaSkoL29HZOTkzh//ryk8H379qGjoyNgLYoNfPnyBTzPswYPHz6Mubk5EW9oaAi7du1ivNTUVHz9+lXA6e3txfXr13H69GmYzWbU1dXh8+fPivQoNuBwOATf2IsXL/xyrVYr48XExGB2dlZpc7JQXEZnZ2fZcWxsLJ05c8Yvd2tNX11dpampKaXNySKkyyp/zhkQgnmBYgPp6enseGVlhYaHh/1y+/v72XFMTAwdOXJEaXPyUPrMKXmJt/JSU1MxPz8v4PT19aG6uhrnzp1DcXExHjx4gJmZGUV6VJXRGzdu+C2j7969ky2jU1NTKCws9FtGOzs7Q2tAaUeWmZkp6Mj27NkT/vmAkqHE0tKS36HElStX8OzZM9FQ4q/MB9xuN2pqapCYmCgSbjAYJFfldsxg7k8jtbW1ICJwHAen04m1tTURz+PxYP/+/YwntWJXVVXFDNy7d0+2bU36gYSEBMrLyyOi30suBQUFxPO8iOfz+cjn87FYam1Jbr3pT2jWken1enYcHR0tyTlw4ABbMvH5fNTS0iLIT0xM0OvXr1kc0HqSFo/Q27dvVU/qr169iq6uLthsNiQlJf3dl9jr9eLatWuS1We7ZZUTJ07IVq+XL18GpCEoA5cvX5YVIlWJFhYW/M4H4uLiQjsf2ERfX5+gYZPJBLvdjsePHyMrK4ud325/wOl0oqqqCqdOnYLZbEZtba3ivQTVBkpLS5lIi8UiyLndbmRkZLB8fX292mZkEZL9gYSEhJ2/P4AtY3u5eq60tiuB6v2BrKwsFj969EiQ//79OzkcDhaHcn9A802+J0+e4NixY4JyuiM3+QDg4sWLsmXUZrNppVUSQXdklZWVksI5jpPsyLSG6i2mrRgcHCSn0xmWvxpoYiCc+Of/rRIxEG5EDIQbEQPhRsRAuPEfg4VSgVfmn1IAAAAASUVORK5CYII=;" vertex="1" parent="1">
          <mxGeometry x="280" y="119" width="48" height="63" as="geometry" />
        </mxCell>
        <mxCell id="Uu7dBt2NGrK-YpvzXJLN-3" value="" style="shape=image;verticalLabelPosition=bottom;labelBackgroundColor=default;verticalAlign=top;aspect=fixed;imageAspect=0;image=data:image/png,iVBORw0KGgoAAAANSUhEUgAAAFgAAABQCAYAAACdxrJZAAAPpUlEQVR4nO1ca0/bSBd+PL7lHggEuttWLaBKVK1arbbqVvv/f8OqnxBlS8g9dhLHd/v9wHum44lDCdhQrThS1ZD4MvP4zLk854yVNE1TPElpwh57AP91eQK4ZNFu+tHzvIcax39CKpXK2ndPGlyy3KjBjymMXT/7NE3xMz+sKAoURbnVsQ8tvwzABBJwDarrugAAXdeh6zriON54XhRFiKIIhmFAVVX+W5Ik5Q/8J/JLAMwYQxRFcF0XrusijmN4nsdB73Q6aDaba4ARuP1+PwNwpVJBpVKBaZoA8Kha/egAM8Zg2zZmsxmAazAYY9A0DYqiYD6fw7Zt/PHHH7kamaYpkiThYAdBwB+OaZrodDowTXPjCihbfgknt1wuObCktQRaGIYwDCP3vDRNYZomDMPgNlhVVW6/fd/H9+/fYds2/+6h5ZcAuNVq8c+MMSRJwv83DAPPnj0D8MNO0z9VVZEkCeI4Rpqm3IbTsaqq4tu3b1gsFo8G8KObiCRJ0Gq14Ps+FosFVFXlGgwA9XodrutiuVxC1/XMua7rYjqdIggC6LrOz0mSBJqmodfrodFo4Pnz549mIkoH+DbhlqIoHCA6njRYURR4nofhcMg1ljSVQNM0jWswgRuGIZIkwadPn/j98+5bdnhX2rqhJTqfz3F5eQnf93OXKWMMYRiuLWMCkmwzAERRxMGI4xiMMW636Xt6MADQbrehqupGcKMownK55NcqQ0q5Kk243+9jMpkgCAJcXV3B932uffQAwjBEv99HGIYZTQSyWq8oSmY1MMb4b3QO3Re4fnD1eh22bWdibHGMk8kE/X4fw+EQvu9nYuiipHCAaZK9Xo9rpaZp8H0flmVB13W+1C3LQq/XQxAEmeUvAiZHFbIjE+21eH8S27YxHA4RhiF/SKqqIggCrFYrmKbJFWA+nxcOcuE2WFEUXF1dwfM8GIbBtbBarXKnFIYhXNflwP5seRLgInCiORAfCtlx8djVagXP81Cr1VCr1aAoCizLylwnTVMMh0OkaYp2u12YU1RuIty3ZdMYY7AsC5PJBIZhrGkW8MMxkf2Ul7k4HNEGi8DJ4NKxdL885yVrOl1LNkdxHOP3339HtVrdOtUunU1L0xSO43BbmjcJWqI04bz4VQZb1M44jnncS78ByIBLf8u2mT6L4xIfGGMMuq5jMBhwk3JfKdwG12o1uK4Lz/PWtE60qSKwoiaKE6cIgaTX6+Hq6gr9fh+WZXHTIl+PRARQvrd8Ht0viiJcXFzAdd1CIotCbXCaptjd3YWqqphOp4jjGJp2fQt5+dPxeZouCk0yDENUKhW8f/8eAHB1dZU5h5wkibwq6H50zSRJ1h7sxcUFoihCt9tFrVYrhI0r3MklSYJ2u41Op4Pv37/DdV0ei9LEZFBFjSIhwObzOXeIxJIlSQLTNHF5eckZtFqtxjU+iqK168m2WPyNMYZer4dWq4XT01OYpokwDAtJPkrJ5MhGbnJGIgMmAkxZmOd5GAwGcF0X9Xod9XodL168QKvV4snG/v4+6vU6HMfBcrmE53lcy03TXLPJwDWQYlIhm7CTkxMYhoEwDAvDohSAFUWB7/vwPI87NQKVfhedVJqmnFT//v07fN9Ht9vFmzdvsLOzA03T+JKmazDG0Gg00Gw2eTY4n89hWRa3nxQmirZezuxICWq1WmaMRUkpADPGsFgscicErANsGAZs20av18P+/j4+fvyIRqPBI4YgCNbuIYZgcRxDURTs7u6i0+lgsVhgNBpxEojGROYJwJqZqFQqsG0bjUajUJDvBbAcxwLXttNxHNi2DV3X1+Ja4BoQsrGapmE4HMKyLLx79w4vXrzgxPk2QjEscM3ANRoNjEYjLBYLvkLkcI3GRNUQx3Hg+36GmbsvIXTnOIQxhslkwjVFVVWoqoo4jjGdTnmsS4MkEMS/VVXl4H7+/BkvX75EEAT31iCKlw8ODnB4eLgWYYhzoPHQ59lsxp0laf1yucwwfdvInTSYMYblcslj0SiKOHM1Ho8RBAFPNsRzZMdD5aAvX76gXq/D9/27DGejRFGEer2OJEkwHA55GYrGIGd6uq5juVzCtm00m034vo/BYIAoiqCqKn777be1VfkzuVOqrKoq+v0+HMfJVHzlwefFvnS+7/s4OzvDly9fsLOzU6jnloUxhuFwyEn7PHJIVADgupodBAHSNIWmaVitVqjVanj16hUPA2UpJFWmOhnRe+QsxKxLtsvib2TTer0ejo6OsLu7Wyq4NI69vb0MuCKPLK8uxhjnr8lJm6YJ13W3HuudAaZcPS/9pP/zHARjDLPZDIZh4M2bN6WDC4Br4c7OToYlEzkOcX4Eunx+EARbp9B3cnL0dMU8H0BunJuXZFiWhaOjozVasUyJ4xiNRoPHxnKYRuMTwZaJKk3TsFwutyKB7qTBq9WKP2XiGgDw5STzAKIZWa1W0DQNh4eHG21ZWSImFKISiBopp9Iy0b9tC8DWAKdpilqthiAIMJ/PMZ1O4ThORhvzOnBoUovFgodOD6W9JEmS8KiC5pLHTYjciTgvCj23GbeWR4j8bJDtdhuWZWE6nWZ6x8TYUfbKNLAgCLC3t/fg2kuiaRqq1So3czKjRmMlRzcYDDhPvFqt0O12t9LgO8XBaZri6OgIJycnXAsuLy85B5zH9xJfYJomKpXKg2svjVvTtFwemRREHO9gMMDe3h6Oj48RBAHiOEa1Wt3KMWt3nSjxBMD10iFmi3J/0c7RwEXK8bE0WCZ66H8yC2QagiAAYwynp6cAwNuzRD7jNlJYRYNowJuI8ziOc733QwslBDc1xYRhiFarxUEVW7S2kcJrcgDWnIho6x4bXNJWYD2sFONfSk7uWzYqDGCx5QlYb6im7x4y9s0TxliGApDDNTERKYK2vDPAcvSxWq3WQhhx6YlloscW0f6LiiCaOSKr7gvynQAWnZeqqnBdF6vVamOiIZqKarV6rwEXIWJmKZb3RXOg6zps2+YRhVzhvq1sHaZRc8lyueSelRINuVIhC8WSnudtTfsVIYqiIAgCTlTJqbBYsyNlmM/nMAyDFwlqtdpWXT9bAyzW2yhUowyHPueViKh8lCQJ71p/DIB938+MWTRdYhGUNHo2m2UyvkajgcPDw1uDfGcbTJ44b6CiUxO9s6IoMAyDVw0eWohH2USrynE7fUfJie/7mEwmD8NF0M3zcvlNta84jmEYBi+xP6SQeVitVplIR5Q8yhX4UY2O4xhRFJXLpgHgBUQalExP0uDyWCnSctu2M0xc2UK+g1JiGUQRNDFbE7/3fR+7u7tbRRZbA0wbU6g6QIOl3oU8HkL22lSmD4LgQRIPxhhc18Viscjs85BDSnGcZALFooHneWi32+Wnyqqq8vZOVVXheR4uLi4wm8145404OBKxMpumKUajUekAEziDwWCNUKdx0HE0tzAMeWcROUTqGqV+jdvKnQCmnUHU03B+fo7Dw0N8/PgR3W43kyrL/QX0t6ZpcF2Xh3hlCJmk0WjEkwe5vCVvS5jP5/j27Rt2dnb47tI0TTEej3ldbxu5M11JVQnLsvDp0yccHBwgDENeISYbuymyAH70VlClocitVgTceDzGcrnMxL0iXy2S6bSV4MOHD3zrl+d5+Oeff8AYw/Hx8dbO+V4d7mSr0jTNlO7jOMbl5SX/O4+6FLMoVVXR6XRQr9dzma1thcCaTCZrFOqmMamqirOzMzx//hynp6d87hSeUYh5k4PLK9vfy42nabrG66bpdZsSVT3kCq3cr0aTHI1GcF0XOzs73IFuTQ3+f7U4jsP3W4gZY57jpficWr2Oj48zDTDUKkuft5VS4iSqfc1mM2ialmkZpXRUJouoW8j3fTQaDdTrdR7GbUq/ya7TanAcB4vFgjskMQIQszXKKEXgp9MpTk5OuJOT53NXKS0QFZs25CRE3tQC/AiToiiCZVmYz+eoVCqoVqvQdX2tgk31PdJYsWdB7KonbRUbTsTwklJ30zTR7XYLr7QUDjAtudVqxXu6xAKo6ODI/ooaLdbIHMeB4zg8zhYTnCiK+FKmc+TOnTzNE22veK9Op4NKpVJ4hlnoNi5FUeC6Lk8ixKW5qcosRxWbmrRFzaPYdNPx8mdRNn3PGEOr1UKtVuNJ07aS5+QKA1hRrluqzs/POY0pE/BAFsS8/mL5exKZWhTvu6kOCKw3WssrRbwehZ+7u7u8QWUbKXWfHC13IoLoO2C9D5fMiFy7E8/LC9fySCR5ycvni46QT3pDYkOtuF+/fi0sjS80hVJVFXt7exmbSpOnlJoCf3kTjEhp5i1jigDyVoV8rPi3aOsV5ZoPpjes5PEPo9EIjLHCejcKBThJElSrVXS73UxWpijXVY9///0X7XabN1s7jrO260fUOlET5RZY8driMbL2i+ny2dkZ5vP5WrIDgO/wXK1WeP/+fWHFgNL2yQHAaDSCpmnQNA2j0Qhv377F69evOa9KL0MKwzB3P4fsBOW/6TsxxhXB1zQNjuPg8vISzWYTHz58QKfTga7rGI/HGI/HME0TiqKg3+9jPB7jr7/+gmmahYVrpe2Ta7fbUBQFw+GQ8w3Pnj2D7/scoE6ng1arxVPaTaCSyBpMv8n9ZbQCptMp+v0+3r17h5cvX/KUPggC1Go1mKYJ3/cxHo/heR7+/vtv7OzsbL0B5yYpLdGI4xitVguGYWCxWOD169fQNC2jGVQd6Ha78H0fURTlRhBkHsTEgYTMiqjJiqJwe//582fs7++v7f/QdR2dTgdfv36FaZr4888/YRhGoeACBcfBuTfIIYRkYYzh8vKS71YS7SeFf5Zl8c01ZFdN00S9XufXoOxQUa7fZtJsNjPETd59KYsTNzneVQone24jeYSQKMTB+r6f4R4onLMsC4PBAK9eveKVFOrOIdZM3KZF2txoNFCtVm+8N+3TK7MR8VFf60VADYdD/vI5kX1LkuvN4MTPilpG2r1cLnF1dcU7ceh8Xdfhui7m8/mNuzeLihY2zrHUq99CxDRYrC6QvT04OMD+/j48z0MQBPxFoGEYIoqiDJkjOjpKpc/OzrauBBcpjwowxc2dTger1YqbCiC7MXDTy4oU5frdlkRBkr0PwxDj8Rjn5+eccHos+SXe/Le7u4tqtYrZbIbZbAbbthFFETRNw2w2w9HRUe65aZqi2WzCtm3+kiOqYFQqFbx9+xYHBwf82MeQ0qOIWw9E+VEqdxwHnudx8yG+21IWevldr9dDs9lEtVpFvV5HtVrlkctDgVsqm1akyJ2MPyuGiuQ+ZXSPobGPEqbdRbaNR4uIYcuSR48i/utyo4l4kvvLkwaXLE8AlyxPAJcsTwCXLE8Alyz/A2ul7g38wGMWAAAAAElFTkSuQmCC;" vertex="1" parent="1">
          <mxGeometry x="420" y="119" width="67.1" height="61" as="geometry" />
        </mxCell>
        <mxCell id="Uu7dBt2NGrK-YpvzXJLN-4" value="" style="shape=image;verticalLabelPosition=bottom;labelBackgroundColor=default;verticalAlign=top;aspect=fixed;imageAspect=0;image=data:image/png,iVBORw0KGgoAAAANSUhEUgAAADEAAAAzCAYAAAA+VOAXAAAGlElEQVRoge2Za4xdVRXHf+s87vvRaTrSmSm0NGhbJdoiqGRMtApIhL7AoAkJgkaU1BC/mUhiosGgHzSihRYkaKISTYytGEqU0CIfSmkd6WAEoVNt6bRNoMzjvu95LT+c27nTzp37mLm1o5l/cnJv9ll77/Xfe6291l5HVFX5H4dxqRXoBhZJLBQsklgoWCSxULBIYqHA6vqIjoP3j9cI/vVv9MQJgtNnCMbHMbNZ6OtDVl6BeeUqrPevg2SyK1N2jYR34CDOnj24fx3CP3oMLZfAdcE0wTAhCMD3wbKQeAzzylXYGzYQ2boZ61Mb5zW3zDd38g4coPzTnTj79kO1AokEEo2C0cRSgwB1HCiVEMvCHhwkvv1rWDfeMCcd5kxCi0XK3/s+lSefRF0fyaTDVe9kOJGQUD6PqBL5/B0kvvNtjGXLOtJlTiT8kWMU770Pd2gI6ekBy+pM+UYIAnR8AvO9V5Ha9QjWh69pu2vHJPzhV8nddQ/B6GhIoJuZvAiayyGpFJknHmvbVzoi4R89Rv5zd+CfPo1ks90lMKWRoIUCRjJJ5je/xrzu2tZd2iWhhSL5TdtwhocxlnZ5B2ZoJWgujznQT+bPezF6e5uKtx3syg/9APdvQxefAIAqkknjHT9O6ZsPtBRvaye8lw6S33IbQTKJNDs6uw1VGBsn/atfYN96y6xibWlUfngHQRAgpjlzkiCoP3PB9P4XrqcIGo1S/skj4DizDtGShHfwZdz9LyCZTH0SVTSXQ8sVcD3wg9qvH579nRDwav09HypVNJc7bxxJJXFfPoTz7J9mHaZl2uH8fjdarSCpZH1ip0rsq18hcsOnkVQKicXQSpXC/d/Af+utMGK3gu9DJEL6sZ0Y/X2o46ClEt6hw5R3PBqmLFZNPcvE2b2HyJZNnZPQSgX38BAkEvW2fJ7Yl+4m+eB3Z8hLXz8cHYE2SUgqhb3xE2DbU832xweRdIbitx5A0ulwRxIJ3CPD6NmzSINo3tSc/Nf/iT8yUl9ZVTAtItu2zapYR+akihaLM5ojN9+ELF0ajgeIbaNnzuC/cqThME1JBCPH0FL5/GTOMC7+Ees6yPTFEEGrVbxX/95QvKk5BcdPhI53IWYhodUqWiqBaYACaCirWtshAQmVwnGhUmk4ljru1C5MwTDxT53qnISePjXzWG0Cc9UVMHE1ks0gth06pmWF5uD74DiIH6CeS1AqYaRrme+F8wY+qsH5pmma6OgcSPhj46hp0K6Vpx7+URhtTTM0u0aBUQPwA7QWFyQSmSkTaPhMh4DhVjonYfb0IH77QayhQjOEDLDaX5jpCOxYw/amji0D/ajfwCcuBTwfWbGi4avmJFauBMue+cJu0NZNWA0MJPAx+/saijclYV61GknE63mRCFSrBG++MW89myE4eRLNF+o+pYpEo1gf+mBD+eYk1q3DXL0ardaTL0nEKf/wx7jPPY9OTnZPc8I7i3vgJUoPPoTYVv108jyM5csx1q9v2K+pY0s8jn3tNXjDwxCvOVUshv/OWfJ33oVx+QqMFZcjy5YiPUswUmmIRpFYFGw7PFoNI1RGFQl81PMR1w1zpUoFCgWCsfHwOTVKcHIUBSSRmIohWiphb/wkRm/jAkLLBDBy++1UfvlUPWCpItEIRGz8t9/GPzkKQS0wqdaDHMxMQXT6n1rgO/drGBCJILFYGK2nB0HPw966efbFbnkpUiX/hTtxnt+HLMlOU+S/Ay0Wsa7+AJlnnp41O259KRIhfv92RATtIGZ0DaUy8a9vb5ret3WzswYHid79RXRsrLMsdT4QQcfGiG7dPOs9Ykq07WpHLkfu1i14r72OLFly8asd+QLme3rJPvcssnx5U/G2b/2SyZB6fBfGZZehk7mLtyMiaKGIEY+R+tmulgSgw+8T5to1pH/+BGbvMnRisvtERNB8HiMRJ/X4TqyPfbStbh3XX6yPXEd69++w1q5F3zkbRvNucFElePddzIEB0r99CvumG9vuOqcikrnmfWT2/oHYl+9BC0V0Ijft4tMhVNF8Hp2YJHbbNjJ7n8Zqo3Q5HfP+PuH+5UXKOx7FfeHFsEKRTIQpeavvE64LpRKIYF9/PbH77iVyy2fnpMO8SZyDu28/zh+fwT10OEzgcvl6JD4XgYMANKwlmQMDWBvWE9myCfvmz8zLv7pG4hy0WMR/4038V44QjI7iT05C1UFsGyObRfr7sDasx1y7JizIdQFdJ3Ep8H/xCXiRxELBfwD95tnreX+JRAAAAABJRU5ErkJggg==;" vertex="1" parent="1">
          <mxGeometry x="700" y="240" width="86.47" height="90" as="geometry" />
        </mxCell>
        <mxCell id="Uu7dBt2NGrK-YpvzXJLN-5" value="" style="shape=image;verticalLabelPosition=bottom;labelBackgroundColor=default;verticalAlign=top;aspect=fixed;imageAspect=0;image=data:image/png,iVBORw0KGgoAAAANSUhEUgAAADwAAABHCAYAAABbGSRwAAAby0lEQVR4nO2be9SdVX3nP/v2XM95L0kISSCBSBACotyUiyKiOIqFkWntjGNbphWtiy5qp1NX2zVdXUynd9s6dqxj61jbigg4WAUqVQsKgsg1hDsETCABQpI3ed9ze677Mn+cnNdACcGw1sxatvuf88fZz36e7/799u/63SKEEPgXNOT/7w/4fz3+FfCP+/hXwD/uQ7+SSf1+nyzLqOsa7z0ET6fbZc/CgKncYL2AIIlVxMKgR2c6pzcoyCKF8x6jNWXtWDLdpT+/i6QzTVk1mMggTUwkWubn55mZXUJVVkRGYz1UZcnMzAz9fgHBYkyCly3BBvI8Z35+nqmpKYbDIXme471HKUWv12PZsmUviUUcyC31+32iKMJai1IKIQQQqNuWJE7wTYOXBonD+wYdZ9jaEetAGyRSWJwHoWNsXWGiGBEsUgeCtQhvqXxEFEVUdUOiBNYLhBBorSgbh4k0Kji89wQhkELSti1xHNM0DVEU0bYtQghCCERRhDHm4AA3TUPbtiilcM4RQkCIgI4iqtqRKAUh4IUHFWialljHtG0LKkIGP94k74iiCOctw41fo37yVqQUhGrEsov+mqosMHFKcJbxngqctag4obUN0lmC1kgvCHiMMVRVtQh6X4Bt29Ltdl8SzwFVumkalFJ475Hyh0e+bRyRguBrglTYoAkWjDaAJcly2qbBCwV4lBLULmDilOaZe0nvuwKdZtR1QxCgowRvKxAK7yUheIxRoARSRCAkAgsiQgpB27ZEUYT3Y/De+8Vv25904RUYLeccQojFBYUQICTBOrSCFokLoLFoB1kc4YpdDH8wlqCRoLUiSROsq5FUSKORcUJkFDoyeDtERwqiBKUNQQiEVEhfMth4LVG1HaU0GovELn7XROuklGN1DwHvPVrvX44HVGnvPaPRiDgeq+kEeJ7nLPSHpGmCcDUITWIECxu/RnXX31Fve4xVf7gF29+B3/Uko60b0bseQe14GDHaha56aGGxQVEfejy2sxr12jPQs68hXXMKJplm7s7LGV37OyQrjiK/+CqkiPEEgg9kScJgMCTNUsqyJE1TQghIKRmNRszOzh4c4BcbrbFae5qmxsQdQluBkKjYsOemP4fv/jkdGhSe6rzLsA9/m7DjMcRoN8YVCCGwUZda50BAeU9W7kQGS60yfL6M9tATiF5/Lu6hG8ifvhMRoH/uZcy+5SNY26AR1LYlTSLqemy0bNOCEAR4WaN1wDPc7XYZDockSULTNFhrgUAn77DQG5JlCT44QhDEh6zFIRDG4IXB/MNlRLakiGexS9eiVx5NGy0hO+oklOqANEgtsY99B72wlXruWXR/G9kPvoXbehtpFKOiCEJA6hQhJcp7nPOknS6D3hx53mFQ1HTSBIJHSEm/32fp0qUHJ+H5+XmyLFu0hEIIAoK6GNHpdCgri5CgtEaFHv1rPkb62A0oI1lQs5gjT0cdcw5m3Vl4vZROd4qyccRG4Ry0ztEGz3QiGGzdiN/+IPbJ78KmW8iaPjJOaZyl+7uPMmw6SNcgJNRly1SnS1GOUFlGXVZoAYRAmqYopQ4OcFVVi4ZhMjUASkq8cwih8SpGiyGj730Ov+Fqkj1PYEUMF3+FbOV6iKao24CmAdcghMYGQZABGQRSaJzzJJEmKIn0A6qnvs/gjitRT9xCbofU5/13uqddROVjcBYtPViLkoI2SISUgAPGHiXP85fEc0CV3tcSTvxwAFAC1wZiHTBhwPy3P4m87S+IXc1o6TFk53yU+PDTaNoWWZcIZ9FRQuUlWguEb1FB7rUJAetbnAPXOoJKYd27WLLmjQzvv57ezZ9BX/+79MuCzjm/jPUSKaAioFWMry1a7ZWEEDjn9ovngBIejUaL0p1EMkIEvHdIFaG0pvfAddgrLyGTNcPXvJ3lF/43/PITCGWBEwo8aAnOBYRWOB9QAkTwEFocEq0EznmQavwOAkLFGA3N3Cb4xOlUMiO841eZPuejVI0kjhJsgGBLgm9BGEQIKKWI4/gl8RzQDydJgnMOrTXee5x3WOuJk4y6rkBANnso5tBjqI5+D0su/CM49PWM+sOxNtgGKaBuGuJUY5shRgYaZ3EiIE1MHKcMK4tM0nHAIcdq3tQlIgCzx7Fw1LuJ/Aj37U8yuP3v6KQx/Qe/zuDeL4AdonWMkAKlFEVRHLyEd++eozs1TVmUJHGElIpAoD8sWDLToRwNCDpFNfOAIp1eTq/fp9PtYOsGpMbZiiiJWVgYMjs9TVkOSJKYpvU0rUe6hs7MEvb0e+SxwjUOVESaRgwW+mTdLq7YzsKXf42pJ75Fe8h6/GtOxT/yj7iyZPpDl+MPO4vQNvjg9xtWviLAznmKsiCOYtq2IbhAkIE4TRkOR3QSTesjhBAYJSiKgjSNKcsKreRelyJp24YsyyhGBVGc0rZ2HD1piRSBflmQZVP4ukZphQ+OpmnoJF2qqkQZQ+hvov/Fj5DteRIhJvYlMDzsDA75+c/SqFkUnqIomJmZeUk8B1TpsiyIFdimQiiNMhqjImzR0IkynAVwKNti64I4NdjWEkcpQUswEh8EUZxS1i0mTXDeYbRGErBtS91Y8iTBVRVCGry1+ABRnFHWNSqSICzR0tcRnX0Jtc4RJkFIg5ISu+VuFh79LlpJrLWkabpfPAcEHBtF68ZnzXuLdw3OtZhI0rQlQhm8kLTaISNF2zQoBbYtCT4Q/NgV+KYmNhpXWZRUWG/xIqClQZmItvJEWhOCRcqADONnTCSpvafxUFrHzOsvxK17G7atsQGKmbXE51xKZ80pBDv2JnVdHzxgFwRCGIT345xXqXF2hMQbjQ8e7RzSK5yTCGFwSKT0aAQChROANDgnQAlC8AjGRQMHuBBABXxwyBBoiEiymLzbQSmJCgLlBVIFvOkyfcbPUelZmtYhTv1JDjnvY4SplTTe/bOs7kcGXNQFRntsW4Maq1Ani4hcQaoNtQ942SKxWNuSRhG+Dpg4RwhBbBRpYsjyDOE9OkqxPhBpgcTSWoutC9I4pWwdTgoyo7jmji38+udv5JFn5unkOVkn49nnF3hk8zMMl52IOfZsTDOgffS72LqgsQHhLN77V6fS3c40rm7RcU7rQbiKz9+4iXufrwltRawknhgBxHHMsBwRJYKibJBI5ouGf9z4HF+6ZRPPDCqCbYmVoGpbnJBkkSRLupTDIWkao7Ri16jk96+8nz+5ehPfeWwnfmEz/fuvoyOHrFy6FJPPEq8/BxvlxNsfYvjU/SRJjFIKYwyDweDgAfcHBSoyVE2FFpI0m+HiT93BB//HLcy1iiiACBIroKlK8iyjalryLCWkEX94zd38hz+4mYs+s5ELf/8bPDtq0CJgohSPpGwto6om62bUZUliDJ++/mEeeb5hzVFrOOVQSe+qS2mv+iDmzk+yLIeOEPilJ1DOrINiN37uYWxo8c7StC1TL+OWDgh4yVSHog0kSYS0gbKsyKc6bJ6z/K+vP4BOY6Ro8EKQJRnDwVg9i0GPb23cyhXf3kY+lbJ8NuLJOckff+kuRJzT1BUqNMRRQjfTLPQHTE11uXfLHH930xME4bjoLYfwpv51qC23kxoDG77M/D1X4Ah0Vh1DsvJoQmhh870kIUCUEEeG0fzugwc8GBREBnRwpJ2EKE1JlCTNprnytm3c99QeMmPQXo6LcJ2Usq3IOjmfuuY+5hrNaa+d4pfevRJN4Kt37eQb92xmqpMjgLYuqIuSbiensvCpf3iQZwrDCatnuHj9gOZ7X8BrQ3XEW4ibivqeL2PLZyiCRnRXIoWEPU/g2hoVGdrGkU29CgkrrTBacvvju/n0DRv4y289gFAaQsv2Pnzy7++ilRIpFEoKvKtRQqFNxK2bCzqp5z+dcwz/5YJTOPnIlIVG8ulvPkHfSqQyoDRBRxgd84/3bObrdz5DrOFX3rOOFVtvwC48x2DJcSRvvpg2WYJ5/kGKDV9BK4jWHE8TLUG4Pgt3/A39m/8CqTSNfxVWWglPUIYv3LKJSz+7kd/42wfII8+bXhuTR3DD/QNueuw54mRv/ikEqYYtu3rUHs4/eQUXnLKGTGou/bevo2sctzw6z5e+/RBxHCMIKAWDuuUz//Ao803E6a+d4fyZJ2ju+yrolM6Zv0C67mzsG85D2xH2+1cgdj4Os2twJsMMtiNu+mP89b+NkfvPlF4RYN/WgEArTac7RdadJdQlH/6J9Zy6tst8AZ+69kF6tQMRkNIgjOJz33iYVZnj0vesx0hL0za88w2redtxMzS15/PffJxnFoZEEiItueaOLXx/c8lUFnHp21eRbvjfqNFu2rVnkZ98IbVIyU7/IPXUEaTzTzK4428JwuNRmODII+gkcm8U9yoknE1P0baCqnY0pcWWDbXzHLW0yy//xPF0dMktG+f5ym2bSLKc0DQ89FzBVbdu5ydPP4zT162iqD2DomQ2i/jl809gaUfwwDOWq76zGZ3kbB1YPv73Gyid5b2nreS85G7aJ++gSJcSnfnzWJFhhwVm+euJzvhZEBIevR77yA1EKsIR4VqPa1tkJBn0RwcPeH5+gcQIjl8zxSmvkZy0dhwb79jT8q6TDuPtb1hO6w2f/fomnl0oSfMOn7z6Lp7u1fzq+05DBIt3nulOSm9+F29/wxref86RNAj+6oZHueup3fzVtQ/w5K6W5VOSj5yWIe66HOEa5PH/Bn3kW1BKk6QxIUiSE/8do1UnoUY7Eff9PZlbwEUZ/VWn0j/8zfimobvkpROHVybhLKcajbj0ghP55u9fyBd/41x6DTy4eSdKeD72vhNZMWN54LmSL938BN988Fm+umEOTWDtkpRh2SCloior0jzHlwWXvGMdRx0SeKoPX/zW/Xz59mcRQfCL7zqaU3Zei9+ygWr6MJLTPojKpmmrEVVb4W2Jnl5HcuL78F4RNQOEHWHzZSz/2U+x4kNfwMqM0aB38IDLqkRF475Ql8BSZbAWNj3bBzRnrlvO+W9cgRWBv7zxKX7tbzZQCMXpx87gmwaivYX6KGVQWpCao1ct4SPvOgajBNdt7DE3DBx/+DQXH1dT33c1DhAnv5/oyNOpBz0SpdFRBELRWMeSN/4U7vAzCU2DJ9AmqyhZQimXEpqabpocPOA4SXHWopWnamtMbAjBsuX5Hrvmh4Dj0gtO4qhDIp6eq9i0vSB2I37l/OOpG4+0oPD4tqCTaArraFvHz527npNXJzy9u8S5ll86eyXLHrsaO/8cxRGn0j3tZ/BlQWYEjRO4xuIR4Guq6BDSt19CX3ZpygIOP5E0zdDURCpQ1vu31AcErKUC55BKYBF4oJNEPLRtN48934OgWL9iCX95ydm8+4QuZ61L+JOLTub8NxwOwuODA8m4SqkMLgTa0HJo5Pn4xWdy4YmzXHbRm/jAsUOqe7+IFRrzpg+gZlfjWouXKQ0BfIsIDhmgbUqi17wZfdrPMFp5KtnRbwUEIUiCMlT79JlePA5Y8VjYs4ssn6JoakwUkUSGN3z0//DYTsvvfeB4fvO9J1IOC9Ikot8EtFHEAgSSylZo6XFtQCUZg0GPmU7GsLEkRhCjqFxAJwnh2Q08e8WlRKtfx8x5v41IDkFqTTEsSPMMArTOogkoGRjWnm5uaOefI1m2mqJfEJRCeE+ad1BSHBzg2lpsXRLJmNY3CBy/d/0T/MlXn+TEwwTX/c57WZaM58VK09YWGWnauhlHUjgQ44Q/jSPqskFFMa23GARSCQSGth4gw06QXWSynGAt1tZEcUTbeDwOoQwCENaiE0NVWdI4oWwqjI4Q3iElVHXN1PT0S+I5oEoPez0iE1M1NVIq4jRnd39Enmo2bW+44saH0CZBeCjKijjPqOuStBOjpEQYgxWQpjmDwYg0y3G2ITVm3MGoa4piSNqdppGrwBxCU5U4b4mzDsNRTRJpkiRGCocUHhlFFMMR3TyhqkbkaUrbVDjvqZuW7vSriKVnp2dp6xKTjS3lTQ88y1W37iCJE0imuPzWrTy2c54kjknSlMGgRxp3GfYbrG9p2orYC+rBkOmZaYajAVpryrIEPEmS0ulm9Bd6ZGlC8A1RZJBKUIzmmeomDOuGqqgJQRE82Lah051ioTcgimOGwwFJEqG0JIojegv9gwc8rGukkThbo/Es7aTIOBkXvLXh8ecdH79yA0EbXHAksaJ1FUmk99aJY5xwmHjcsZ80saMoAsbd+rpuiJOYpq4RezsHwUMUJVRNizYKowUygBAKpRRVVZEkMc65va3ccbXDOUeSvAq3pCR4DyIYitpy8rrlDId9hmVJV/aZSiTX37OLT1x7N2mcIIgIQo2L7EEgg8RLgRXjOtakgzHpM0spFzsaL6xFSUKIkChCgCRLSLME5AvnTtYac094wdoHB1hIhFdIEeFFoGkrzj0m4ydPXcLlHzuHt6zLGDSBP/ryw3z66/cRJQmxUOP6NaBcjfIS/A+BAYu/QogXNur2bggiIHyDEhZF4Jqbn+AzNzzAQjnuZEj5Q2CTZyagX84Ov4J26RxZ1qWpPFEsCUIwcIEUQSeLeHJuwMV/9k/c8ZQnVRV/8IH1XPKeExEERqVDyRbnAsakFMMBeadDXdeLjALrLMEHOp0Oo9EIY8wizSKKDK6pSPIppv/jF+nPz3P5b76Nn33bCSzMz9Odmtpb+B+zACYb93Lt0gMbrZkZRm1Dkiuss9jakgdHJzHMz8+zblmHv/31d3HqaknhDL911eNcdvUGts2PkF6Mq4lSUBQjpqdnFkGNjRakcUqn06HX65HnGSF4oshglEILSS0jfutLd1KScvbJKzhp3UrqvW6n1+sRxzGDwYAoitBaE0URCwsLBy/hfr+PiWNcW6O1QQSBl9A0LVlsqBtHJ4vZvHvEL/zZt7jvOUeoLW8+ZprrLvsJIiWwdYkTkrZs0EmKbxu0lrQBhG2xGOJEYashkUkwUYQlcNvDz/KHX9nIbY/3eeORKZ/7tXNZt3SWsqqwtl1kJRhjaJpmkdwSx/HB87QmpJbJ4uNzI8jSlKLfJ8pyXHBkiWZHYfnIp2/jlkcKgre88/iED73zOE47dhVpKomFwZY1Uo7jcmEiEikRJqFtK4xJ2F233PnwNq64+VFu3LhASUrQgo0ffzuvWZpTjho8niRNGQ4GpGlKVVWkabpYhH85UssBG+KDwYAkSajrGqXU3rMRKEd9kk5O0zTjToQN9PuW5/dUaOExmeZr94249cE7Of7IjDceM80Z69ewamnGusNmUHFKG2DkBU/+YA9zc3Pc/+TzfGdTjw1bhhS1p9PtkEtD09QobXC2RqiAQlGMCvI8p65r0jRdlLC1lk6ns188P3JDHMaNdhs8ShqkH1P+4jTl1//qn/jTb25n2bJDUKFl3TLPQ8809OsWJQKR0qyaiVi7VKCR1EKADzw155jr15QttEExk8P65Zrn+oLKa5TwvP9NXf70Q+dQlxUBscirnEh1X1ckpdyvLz6ghJMkoSzLRT5jCIEgBFESUw+HxPG4ie2amve98ySeXLDc8uAOeqXg+k9/gG/f/wzf2fg0D27Zw6bnBdvmLTv6Eq0UXgQUgVHVMNuJed1SweuPmOXdbzyMN5+who9f8wB/9rXH6Gae9555OrYNSAetGJ/TyVGbUBBh7ObKstwv4ANKeDAYLLqKSZAA0LQVSWRobcALhfKBNI5wInDN9zdz5U2PcO1l54PQOO/ot577n9hN4Ro+d9Pj3LRxRJZq6qrH5b/6VroG1h25gpWZROAJSJ7Y1eO/fvYW3vu2E/i5M49iVFYo6QGFdQ5jDNZatNa0bbuoicaYxUjuRwYcQmCw1zjUdb2XfwF5ljPfH5GnEZ5x3huZiGpY0J2ZYdewIQ8VHoMxkrppmZoan63//Pmb+eyNO5nqdOgNRpRX/jS+nIe4S1lZtNLgGmpryTpTBG8pRiOMlns5I548y1hYWKDT6VAUBVmWLR674XDIkiVLXhLPAf3wnj17FtVaa00cx0RRzEKvx/RUTtO2BO8RQVCMSvKpKfr9PofkGmkiongsjSTPWdizB4DIlejRDly5G1nuovAg4w79wYggJG1b4L0lzzLKQQ9CIMsyhBj75sgYer0eMzMz1HVNt9ulrmvatqWqqv2CfUUSHgf39aL6TKbHcbx4ticGQym1GEU1e9NJGBsR1zrSRFI0lm0LFZu27iGONEI6zj3xaOrhAibu0DiHloEQwFq3SA+erAMsJh+TZKRt20VCqRCCpmmYmpo6OMBVVS0G5/tOnVjGyZmejBfSm/b9tQglsQEiY4hVtJdXBXUxGHO/pCaEsZ8HRQjuBe/dN1Z+qXdMxqsipr14KDXmUWmtF33zxP9FUTS24ntpvBMq75jypHFBQNOCbKnbljjJqW1LFGcUdkxXMkrQ7GW7T8ZEwhMwE8s8CScnaeGEFf9y4xUx8ay1GGNQSvG9732PZcuWsX37drZt20an02FhYYH5+XnOOussqqpibm6OtWvXcs8993DyySezc+dOBILt23dQDPtcdNH7qRrHZ//6f/Ked7+Da6/7BnVbMzPVRYiAkoq6rpiZmcV7zxlnnMHWrVu55557OOmkk8jznKeeeooVK1awfft2sixj3bp1nHXWWbRt+4IN+pEBDwaDxYgmz3OOOOIIrrjiCubm5vjoRz/K008/zeOPP85b3/pWbr/9dsqyZM2aNZRlyRlnnMHdd9/Npk2biIxh+YpDOeuct3HPvffTHxV89atfoykKntiyhX//0z/F9me2UlvP6iPX8iu/9IusOuxwkiQlTVOGwyFHHnkkq1ev5hOf+ASXXHIJt99+O48++ig/+MEP+PCHP8zZZ5/9sucXXhFPyy0aJ+ccCwsL3HjjjRx77LFs3rwZgJUrV7J69WruvPNO1q5dy0MPPcSOHTs46qij6PV6HHHEEdRFwe133cXrTz6V8859B1dffRUrD1vJc9ue5Zj164m1YqqbsXPPgDvuvpdlMx22bt3KoYeuWGQCrlmzhnXr1nHrrbeyefNmVq9ezXHHHccdd9zBCSecwAUXXEDTNJR7b8McFOBer/eCrATG0VfbtosM+UlgMjEWRVGML3kAaZpijEFKyY4dO5memYa9wYGQgrZp8cETm4iyKomisfXP8xylFKPRiCgaE98mXiJNU+bn55mdnV2MqiZ0wxACSZLs9xrAK5JwURSLrPjJ9MlLJlxMAK31YhBQVdWiQZFSLt40GQ6Hiy5OSYU24w8rinEyMNnYiRGaZEOT9ScGMUkShsPhYkAUx/Gi1yiK4uCvAEySh8liEys4AbLv42Evk/XF/01qUJOLGfu6s4lVn9CU93Uzk2f2rXW9lEv6UZKHAzfE9/HBE8CTQtnERe37MROgL86w9i227VuEm7ivF89/8TP7Fu3gh7da9n3Xvpu+v3HgzkNdL17wmFyVEUIsuqt9JTY5Z1prrLUvAO/2BvuTqGjy/+SjJ65vX/a92ydBAF4ATCm1uNa+4AGstftl1B4Q8I/b+Bd3u/RfAf+4j39xgP8vQDiJJK5JmTYAAAAASUVORK5CYII=;" vertex="1" parent="1">
          <mxGeometry x="90" y="259" width="70" height="82.83" as="geometry" />
        </mxCell>
        <object label="" id="Uu7dBt2NGrK-YpvzXJLN-6">
          <mxCell style="shape=image;verticalLabelPosition=bottom;labelBackgroundColor=default;verticalAlign=top;aspect=fixed;imageAspect=0;image=data:image/png,iVBORw0KGgoAAAANSUhEUgAAAFgAAABQCAYAAACdxrJZAAAPpUlEQVR4nO1ca0/bSBd+PL7lHggEuttWLaBKVK1arbbqVvv/f8OqnxBlS8g9dhLHd/v9wHum44lDCdhQrThS1ZD4MvP4zLk854yVNE1TPElpwh57AP91eQK4ZNFu+tHzvIcax39CKpXK2ndPGlyy3KjBjymMXT/7NE3xMz+sKAoURbnVsQ8tvwzABBJwDarrugAAXdeh6zriON54XhRFiKIIhmFAVVX+W5Ik5Q/8J/JLAMwYQxRFcF0XrusijmN4nsdB73Q6aDaba4ARuP1+PwNwpVJBpVKBaZoA8Kha/egAM8Zg2zZmsxmAazAYY9A0DYqiYD6fw7Zt/PHHH7kamaYpkiThYAdBwB+OaZrodDowTXPjCihbfgknt1wuObCktQRaGIYwDCP3vDRNYZomDMPgNlhVVW6/fd/H9+/fYds2/+6h5ZcAuNVq8c+MMSRJwv83DAPPnj0D8MNO0z9VVZEkCeI4Rpqm3IbTsaqq4tu3b1gsFo8G8KObiCRJ0Gq14Ps+FosFVFXlGgwA9XodrutiuVxC1/XMua7rYjqdIggC6LrOz0mSBJqmodfrodFo4Pnz549mIkoH+DbhlqIoHCA6njRYURR4nofhcMg1ljSVQNM0jWswgRuGIZIkwadPn/j98+5bdnhX2rqhJTqfz3F5eQnf93OXKWMMYRiuLWMCkmwzAERRxMGI4xiMMW636Xt6MADQbrehqupGcKMownK55NcqQ0q5Kk243+9jMpkgCAJcXV3B932uffQAwjBEv99HGIYZTQSyWq8oSmY1MMb4b3QO3Re4fnD1eh22bWdibHGMk8kE/X4fw+EQvu9nYuiipHCAaZK9Xo9rpaZp8H0flmVB13W+1C3LQq/XQxAEmeUvAiZHFbIjE+21eH8S27YxHA4RhiF/SKqqIggCrFYrmKbJFWA+nxcOcuE2WFEUXF1dwfM8GIbBtbBarXKnFIYhXNflwP5seRLgInCiORAfCtlx8djVagXP81Cr1VCr1aAoCizLylwnTVMMh0OkaYp2u12YU1RuIty3ZdMYY7AsC5PJBIZhrGkW8MMxkf2Ul7k4HNEGi8DJ4NKxdL885yVrOl1LNkdxHOP3339HtVrdOtUunU1L0xSO43BbmjcJWqI04bz4VQZb1M44jnncS78ByIBLf8u2mT6L4xIfGGMMuq5jMBhwk3JfKdwG12o1uK4Lz/PWtE60qSKwoiaKE6cIgaTX6+Hq6gr9fh+WZXHTIl+PRARQvrd8Ht0viiJcXFzAdd1CIotCbXCaptjd3YWqqphOp4jjGJp2fQt5+dPxeZouCk0yDENUKhW8f/8eAHB1dZU5h5wkibwq6H50zSRJ1h7sxcUFoihCt9tFrVYrhI0r3MklSYJ2u41Op4Pv37/DdV0ei9LEZFBFjSIhwObzOXeIxJIlSQLTNHF5eckZtFqtxjU+iqK168m2WPyNMYZer4dWq4XT01OYpokwDAtJPkrJ5MhGbnJGIgMmAkxZmOd5GAwGcF0X9Xod9XodL168QKvV4snG/v4+6vU6HMfBcrmE53lcy03TXLPJwDWQYlIhm7CTkxMYhoEwDAvDohSAFUWB7/vwPI87NQKVfhedVJqmnFT//v07fN9Ht9vFmzdvsLOzA03T+JKmazDG0Gg00Gw2eTY4n89hWRa3nxQmirZezuxICWq1WmaMRUkpADPGsFgscicErANsGAZs20av18P+/j4+fvyIRqPBI4YgCNbuIYZgcRxDURTs7u6i0+lgsVhgNBpxEojGROYJwJqZqFQqsG0bjUajUJDvBbAcxwLXttNxHNi2DV3X1+Ja4BoQsrGapmE4HMKyLLx79w4vXrzgxPk2QjEscM3ANRoNjEYjLBYLvkLkcI3GRNUQx3Hg+36GmbsvIXTnOIQxhslkwjVFVVWoqoo4jjGdTnmsS4MkEMS/VVXl4H7+/BkvX75EEAT31iCKlw8ODnB4eLgWYYhzoPHQ59lsxp0laf1yucwwfdvInTSYMYblcslj0SiKOHM1Ho8RBAFPNsRzZMdD5aAvX76gXq/D9/27DGejRFGEer2OJEkwHA55GYrGIGd6uq5juVzCtm00m034vo/BYIAoiqCqKn777be1VfkzuVOqrKoq+v0+HMfJVHzlwefFvnS+7/s4OzvDly9fsLOzU6jnloUxhuFwyEn7PHJIVADgupodBAHSNIWmaVitVqjVanj16hUPA2UpJFWmOhnRe+QsxKxLtsvib2TTer0ejo6OsLu7Wyq4NI69vb0MuCKPLK8uxhjnr8lJm6YJ13W3HuudAaZcPS/9pP/zHARjDLPZDIZh4M2bN6WDC4Br4c7OToYlEzkOcX4Eunx+EARbp9B3cnL0dMU8H0BunJuXZFiWhaOjozVasUyJ4xiNRoPHxnKYRuMTwZaJKk3TsFwutyKB7qTBq9WKP2XiGgDw5STzAKIZWa1W0DQNh4eHG21ZWSImFKISiBopp9Iy0b9tC8DWAKdpilqthiAIMJ/PMZ1O4ThORhvzOnBoUovFgodOD6W9JEmS8KiC5pLHTYjciTgvCj23GbeWR4j8bJDtdhuWZWE6nWZ6x8TYUfbKNLAgCLC3t/fg2kuiaRqq1So3czKjRmMlRzcYDDhPvFqt0O12t9LgO8XBaZri6OgIJycnXAsuLy85B5zH9xJfYJomKpXKg2svjVvTtFwemRREHO9gMMDe3h6Oj48RBAHiOEa1Wt3KMWt3nSjxBMD10iFmi3J/0c7RwEXK8bE0WCZ66H8yC2QagiAAYwynp6cAwNuzRD7jNlJYRYNowJuI8ziOc733QwslBDc1xYRhiFarxUEVW7S2kcJrcgDWnIho6x4bXNJWYD2sFONfSk7uWzYqDGCx5QlYb6im7x4y9s0TxliGApDDNTERKYK2vDPAcvSxWq3WQhhx6YlloscW0f6LiiCaOSKr7gvynQAWnZeqqnBdF6vVamOiIZqKarV6rwEXIWJmKZb3RXOg6zps2+YRhVzhvq1sHaZRc8lyueSelRINuVIhC8WSnudtTfsVIYqiIAgCTlTJqbBYsyNlmM/nMAyDFwlqtdpWXT9bAyzW2yhUowyHPueViKh8lCQJ71p/DIB938+MWTRdYhGUNHo2m2UyvkajgcPDw1uDfGcbTJ44b6CiUxO9s6IoMAyDVw0eWohH2USrynE7fUfJie/7mEwmD8NF0M3zcvlNta84jmEYBi+xP6SQeVitVplIR5Q8yhX4UY2O4xhRFJXLpgHgBUQalExP0uDyWCnSctu2M0xc2UK+g1JiGUQRNDFbE7/3fR+7u7tbRRZbA0wbU6g6QIOl3oU8HkL22lSmD4LgQRIPxhhc18Viscjs85BDSnGcZALFooHneWi32+Wnyqqq8vZOVVXheR4uLi4wm8145404OBKxMpumKUajUekAEziDwWCNUKdx0HE0tzAMeWcROUTqGqV+jdvKnQCmnUHU03B+fo7Dw0N8/PgR3W43kyrL/QX0t6ZpcF2Xh3hlCJmk0WjEkwe5vCVvS5jP5/j27Rt2dnb47tI0TTEej3ldbxu5M11JVQnLsvDp0yccHBwgDENeISYbuymyAH70VlClocitVgTceDzGcrnMxL0iXy2S6bSV4MOHD3zrl+d5+Oeff8AYw/Hx8dbO+V4d7mSr0jTNlO7jOMbl5SX/O4+6FLMoVVXR6XRQr9dzma1thcCaTCZrFOqmMamqirOzMzx//hynp6d87hSeUYh5k4PLK9vfy42nabrG66bpdZsSVT3kCq3cr0aTHI1GcF0XOzs73IFuTQ3+f7U4jsP3W4gZY57jpficWr2Oj48zDTDUKkuft5VS4iSqfc1mM2ialmkZpXRUJouoW8j3fTQaDdTrdR7GbUq/ya7TanAcB4vFgjskMQIQszXKKEXgp9MpTk5OuJOT53NXKS0QFZs25CRE3tQC/AiToiiCZVmYz+eoVCqoVqvQdX2tgk31PdJYsWdB7KonbRUbTsTwklJ30zTR7XYLr7QUDjAtudVqxXu6xAKo6ODI/ooaLdbIHMeB4zg8zhYTnCiK+FKmc+TOnTzNE22veK9Op4NKpVJ4hlnoNi5FUeC6Lk8ixKW5qcosRxWbmrRFzaPYdNPx8mdRNn3PGEOr1UKtVuNJ07aS5+QKA1hRrluqzs/POY0pE/BAFsS8/mL5exKZWhTvu6kOCKw3WssrRbwehZ+7u7u8QWUbKXWfHC13IoLoO2C9D5fMiFy7E8/LC9fySCR5ycvni46QT3pDYkOtuF+/fi0sjS80hVJVFXt7exmbSpOnlJoCf3kTjEhp5i1jigDyVoV8rPi3aOsV5ZoPpjes5PEPo9EIjLHCejcKBThJElSrVXS73UxWpijXVY9///0X7XabN1s7jrO260fUOlET5RZY8driMbL2i+ny2dkZ5vP5WrIDgO/wXK1WeP/+fWHFgNL2yQHAaDSCpmnQNA2j0Qhv377F69evOa9KL0MKwzB3P4fsBOW/6TsxxhXB1zQNjuPg8vISzWYTHz58QKfTga7rGI/HGI/HME0TiqKg3+9jPB7jr7/+gmmahYVrpe2Ta7fbUBQFw+GQ8w3Pnj2D7/scoE6ng1arxVPaTaCSyBpMv8n9ZbQCptMp+v0+3r17h5cvX/KUPggC1Go1mKYJ3/cxHo/heR7+/vtv7OzsbL0B5yYpLdGI4xitVguGYWCxWOD169fQNC2jGVQd6Ha78H0fURTlRhBkHsTEgYTMiqjJiqJwe//582fs7++v7f/QdR2dTgdfv36FaZr4888/YRhGoeACBcfBuTfIIYRkYYzh8vKS71YS7SeFf5Zl8c01ZFdN00S9XufXoOxQUa7fZtJsNjPETd59KYsTNzneVQone24jeYSQKMTB+r6f4R4onLMsC4PBAK9eveKVFOrOIdZM3KZF2txoNFCtVm+8N+3TK7MR8VFf60VADYdD/vI5kX1LkuvN4MTPilpG2r1cLnF1dcU7ceh8Xdfhui7m8/mNuzeLihY2zrHUq99CxDRYrC6QvT04OMD+/j48z0MQBPxFoGEYIoqiDJkjOjpKpc/OzrauBBcpjwowxc2dTger1YqbCiC7MXDTy4oU5frdlkRBkr0PwxDj8Rjn5+eccHos+SXe/Le7u4tqtYrZbIbZbAbbthFFETRNw2w2w9HRUe65aZqi2WzCtm3+kiOqYFQqFbx9+xYHBwf82MeQ0qOIWw9E+VEqdxwHnudx8yG+21IWevldr9dDs9lEtVpFvV5HtVrlkctDgVsqm1akyJ2MPyuGiuQ+ZXSPobGPEqbdRbaNR4uIYcuSR48i/utyo4l4kvvLkwaXLE8AlyxPAJcsTwCXLE8Alyz/A2ul7g38wGMWAAAAAElFTkSuQmCC;" vertex="1" parent="1">
            <mxGeometry x="425" y="269" width="67.1" height="61" as="geometry" />
          </mxCell>
        </object>
        <mxCell id="Uu7dBt2NGrK-YpvzXJLN-7" value="" style="shape=image;verticalLabelPosition=bottom;labelBackgroundColor=default;verticalAlign=top;aspect=fixed;imageAspect=0;image=data:image/png,iVBORw0KGgoAAAANSUhEUgAAAFgAAABQCAYAAACdxrJZAAAPpUlEQVR4nO1ca0/bSBd+PL7lHggEuttWLaBKVK1arbbqVvv/f8OqnxBlS8g9dhLHd/v9wHum44lDCdhQrThS1ZD4MvP4zLk854yVNE1TPElpwh57AP91eQK4ZNFu+tHzvIcax39CKpXK2ndPGlyy3KjBjymMXT/7NE3xMz+sKAoURbnVsQ8tvwzABBJwDarrugAAXdeh6zriON54XhRFiKIIhmFAVVX+W5Ik5Q/8J/JLAMwYQxRFcF0XrusijmN4nsdB73Q6aDaba4ARuP1+PwNwpVJBpVKBaZoA8Kha/egAM8Zg2zZmsxmAazAYY9A0DYqiYD6fw7Zt/PHHH7kamaYpkiThYAdBwB+OaZrodDowTXPjCihbfgknt1wuObCktQRaGIYwDCP3vDRNYZomDMPgNlhVVW6/fd/H9+/fYds2/+6h5ZcAuNVq8c+MMSRJwv83DAPPnj0D8MNO0z9VVZEkCeI4Rpqm3IbTsaqq4tu3b1gsFo8G8KObiCRJ0Gq14Ps+FosFVFXlGgwA9XodrutiuVxC1/XMua7rYjqdIggC6LrOz0mSBJqmodfrodFo4Pnz549mIkoH+DbhlqIoHCA6njRYURR4nofhcMg1ljSVQNM0jWswgRuGIZIkwadPn/j98+5bdnhX2rqhJTqfz3F5eQnf93OXKWMMYRiuLWMCkmwzAERRxMGI4xiMMW636Xt6MADQbrehqupGcKMownK55NcqQ0q5Kk243+9jMpkgCAJcXV3B932uffQAwjBEv99HGIYZTQSyWq8oSmY1MMb4b3QO3Re4fnD1eh22bWdibHGMk8kE/X4fw+EQvu9nYuiipHCAaZK9Xo9rpaZp8H0flmVB13W+1C3LQq/XQxAEmeUvAiZHFbIjE+21eH8S27YxHA4RhiF/SKqqIggCrFYrmKbJFWA+nxcOcuE2WFEUXF1dwfM8GIbBtbBarXKnFIYhXNflwP5seRLgInCiORAfCtlx8djVagXP81Cr1VCr1aAoCizLylwnTVMMh0OkaYp2u12YU1RuIty3ZdMYY7AsC5PJBIZhrGkW8MMxkf2Ul7k4HNEGi8DJ4NKxdL885yVrOl1LNkdxHOP3339HtVrdOtUunU1L0xSO43BbmjcJWqI04bz4VQZb1M44jnncS78ByIBLf8u2mT6L4xIfGGMMuq5jMBhwk3JfKdwG12o1uK4Lz/PWtE60qSKwoiaKE6cIgaTX6+Hq6gr9fh+WZXHTIl+PRARQvrd8Ht0viiJcXFzAdd1CIotCbXCaptjd3YWqqphOp4jjGJp2fQt5+dPxeZouCk0yDENUKhW8f/8eAHB1dZU5h5wkibwq6H50zSRJ1h7sxcUFoihCt9tFrVYrhI0r3MklSYJ2u41Op4Pv37/DdV0ei9LEZFBFjSIhwObzOXeIxJIlSQLTNHF5eckZtFqtxjU+iqK168m2WPyNMYZer4dWq4XT01OYpokwDAtJPkrJ5MhGbnJGIgMmAkxZmOd5GAwGcF0X9Xod9XodL168QKvV4snG/v4+6vU6HMfBcrmE53lcy03TXLPJwDWQYlIhm7CTkxMYhoEwDAvDohSAFUWB7/vwPI87NQKVfhedVJqmnFT//v07fN9Ht9vFmzdvsLOzA03T+JKmazDG0Gg00Gw2eTY4n89hWRa3nxQmirZezuxICWq1WmaMRUkpADPGsFgscicErANsGAZs20av18P+/j4+fvyIRqPBI4YgCNbuIYZgcRxDURTs7u6i0+lgsVhgNBpxEojGROYJwJqZqFQqsG0bjUajUJDvBbAcxwLXttNxHNi2DV3X1+Ja4BoQsrGapmE4HMKyLLx79w4vXrzgxPk2QjEscM3ANRoNjEYjLBYLvkLkcI3GRNUQx3Hg+36GmbsvIXTnOIQxhslkwjVFVVWoqoo4jjGdTnmsS4MkEMS/VVXl4H7+/BkvX75EEAT31iCKlw8ODnB4eLgWYYhzoPHQ59lsxp0laf1yucwwfdvInTSYMYblcslj0SiKOHM1Ho8RBAFPNsRzZMdD5aAvX76gXq/D9/27DGejRFGEer2OJEkwHA55GYrGIGd6uq5juVzCtm00m034vo/BYIAoiqCqKn777be1VfkzuVOqrKoq+v0+HMfJVHzlwefFvnS+7/s4OzvDly9fsLOzU6jnloUxhuFwyEn7PHJIVADgupodBAHSNIWmaVitVqjVanj16hUPA2UpJFWmOhnRe+QsxKxLtsvib2TTer0ejo6OsLu7Wyq4NI69vb0MuCKPLK8uxhjnr8lJm6YJ13W3HuudAaZcPS/9pP/zHARjDLPZDIZh4M2bN6WDC4Br4c7OToYlEzkOcX4Eunx+EARbp9B3cnL0dMU8H0BunJuXZFiWhaOjozVasUyJ4xiNRoPHxnKYRuMTwZaJKk3TsFwutyKB7qTBq9WKP2XiGgDw5STzAKIZWa1W0DQNh4eHG21ZWSImFKISiBopp9Iy0b9tC8DWAKdpilqthiAIMJ/PMZ1O4ThORhvzOnBoUovFgodOD6W9JEmS8KiC5pLHTYjciTgvCj23GbeWR4j8bJDtdhuWZWE6nWZ6x8TYUfbKNLAgCLC3t/fg2kuiaRqq1So3czKjRmMlRzcYDDhPvFqt0O12t9LgO8XBaZri6OgIJycnXAsuLy85B5zH9xJfYJomKpXKg2svjVvTtFwemRREHO9gMMDe3h6Oj48RBAHiOEa1Wt3KMWt3nSjxBMD10iFmi3J/0c7RwEXK8bE0WCZ66H8yC2QagiAAYwynp6cAwNuzRD7jNlJYRYNowJuI8ziOc733QwslBDc1xYRhiFarxUEVW7S2kcJrcgDWnIho6x4bXNJWYD2sFONfSk7uWzYqDGCx5QlYb6im7x4y9s0TxliGApDDNTERKYK2vDPAcvSxWq3WQhhx6YlloscW0f6LiiCaOSKr7gvynQAWnZeqqnBdF6vVamOiIZqKarV6rwEXIWJmKZb3RXOg6zps2+YRhVzhvq1sHaZRc8lyueSelRINuVIhC8WSnudtTfsVIYqiIAgCTlTJqbBYsyNlmM/nMAyDFwlqtdpWXT9bAyzW2yhUowyHPueViKh8lCQJ71p/DIB938+MWTRdYhGUNHo2m2UyvkajgcPDw1uDfGcbTJ44b6CiUxO9s6IoMAyDVw0eWohH2USrynE7fUfJie/7mEwmD8NF0M3zcvlNta84jmEYBi+xP6SQeVitVplIR5Q8yhX4UY2O4xhRFJXLpgHgBUQalExP0uDyWCnSctu2M0xc2UK+g1JiGUQRNDFbE7/3fR+7u7tbRRZbA0wbU6g6QIOl3oU8HkL22lSmD4LgQRIPxhhc18Viscjs85BDSnGcZALFooHneWi32+Wnyqqq8vZOVVXheR4uLi4wm8145404OBKxMpumKUajUekAEziDwWCNUKdx0HE0tzAMeWcROUTqGqV+jdvKnQCmnUHU03B+fo7Dw0N8/PgR3W43kyrL/QX0t6ZpcF2Xh3hlCJmk0WjEkwe5vCVvS5jP5/j27Rt2dnb47tI0TTEej3ldbxu5M11JVQnLsvDp0yccHBwgDENeISYbuymyAH70VlClocitVgTceDzGcrnMxL0iXy2S6bSV4MOHD3zrl+d5+Oeff8AYw/Hx8dbO+V4d7mSr0jTNlO7jOMbl5SX/O4+6FLMoVVXR6XRQr9dzma1thcCaTCZrFOqmMamqirOzMzx//hynp6d87hSeUYh5k4PLK9vfy42nabrG66bpdZsSVT3kCq3cr0aTHI1GcF0XOzs73IFuTQ3+f7U4jsP3W4gZY57jpficWr2Oj48zDTDUKkuft5VS4iSqfc1mM2ialmkZpXRUJouoW8j3fTQaDdTrdR7GbUq/ya7TanAcB4vFgjskMQIQszXKKEXgp9MpTk5OuJOT53NXKS0QFZs25CRE3tQC/AiToiiCZVmYz+eoVCqoVqvQdX2tgk31PdJYsWdB7KonbRUbTsTwklJ30zTR7XYLr7QUDjAtudVqxXu6xAKo6ODI/ooaLdbIHMeB4zg8zhYTnCiK+FKmc+TOnTzNE22veK9Op4NKpVJ4hlnoNi5FUeC6Lk8ixKW5qcosRxWbmrRFzaPYdNPx8mdRNn3PGEOr1UKtVuNJ07aS5+QKA1hRrluqzs/POY0pE/BAFsS8/mL5exKZWhTvu6kOCKw3WssrRbwehZ+7u7u8QWUbKXWfHC13IoLoO2C9D5fMiFy7E8/LC9fySCR5ycvni46QT3pDYkOtuF+/fi0sjS80hVJVFXt7exmbSpOnlJoCf3kTjEhp5i1jigDyVoV8rPi3aOsV5ZoPpjes5PEPo9EIjLHCejcKBThJElSrVXS73UxWpijXVY9///0X7XabN1s7jrO260fUOlET5RZY8driMbL2i+ny2dkZ5vP5WrIDgO/wXK1WeP/+fWHFgNL2yQHAaDSCpmnQNA2j0Qhv377F69evOa9KL0MKwzB3P4fsBOW/6TsxxhXB1zQNjuPg8vISzWYTHz58QKfTga7rGI/HGI/HME0TiqKg3+9jPB7jr7/+gmmahYVrpe2Ta7fbUBQFw+GQ8w3Pnj2D7/scoE6ng1arxVPaTaCSyBpMv8n9ZbQCptMp+v0+3r17h5cvX/KUPggC1Go1mKYJ3/cxHo/heR7+/vtv7OzsbL0B5yYpLdGI4xitVguGYWCxWOD169fQNC2jGVQd6Ha78H0fURTlRhBkHsTEgYTMiqjJiqJwe//582fs7++v7f/QdR2dTgdfv36FaZr4888/YRhGoeACBcfBuTfIIYRkYYzh8vKS71YS7SeFf5Zl8c01ZFdN00S9XufXoOxQUa7fZtJsNjPETd59KYsTNzneVQone24jeYSQKMTB+r6f4R4onLMsC4PBAK9eveKVFOrOIdZM3KZF2txoNFCtVm+8N+3TK7MR8VFf60VADYdD/vI5kX1LkuvN4MTPilpG2r1cLnF1dcU7ceh8Xdfhui7m8/mNuzeLihY2zrHUq99CxDRYrC6QvT04OMD+/j48z0MQBPxFoGEYIoqiDJkjOjpKpc/OzrauBBcpjwowxc2dTger1YqbCiC7MXDTy4oU5frdlkRBkr0PwxDj8Rjn5+eccHos+SXe/Le7u4tqtYrZbIbZbAbbthFFETRNw2w2w9HRUe65aZqi2WzCtm3+kiOqYFQqFbx9+xYHBwf82MeQ0qOIWw9E+VEqdxwHnudx8yG+21IWevldr9dDs9lEtVpFvV5HtVrlkctDgVsqm1akyJ2MPyuGiuQ+ZXSPobGPEqbdRbaNR4uIYcuSR48i/utyo4l4kvvLkwaXLE8AlyxPAJcsTwCXLE8Alyz/A2ul7g38wGMWAAAAAElFTkSuQmCC;" vertex="1" parent="1">
          <mxGeometry x="425" y="420" width="67.1" height="61" as="geometry" />
        </mxCell>
        <mxCell id="Uu7dBt2NGrK-YpvzXJLN-8" value="Actor" style="shape=umlActor;verticalLabelPosition=bottom;verticalAlign=top;html=1;outlineConnect=0;" vertex="1" parent="1">
          <mxGeometry x="115" y="410" width="30" height="60" as="geometry" />
        </mxCell>
        <mxCell id="Uu7dBt2NGrK-YpvzXJLN-22" value="" style="endArrow=classic;html=1;rounded=0;" edge="1" parent="1">
          <mxGeometry width="50" height="50" relative="1" as="geometry">
            <mxPoint x="408" y="150" as="sourcePoint" />
            <mxPoint x="328" y="150" as="targetPoint" />
          </mxGeometry>
        </mxCell>
        <mxCell id="Uu7dBt2NGrK-YpvzXJLN-27" value="" style="endArrow=classic;html=1;rounded=0;" edge="1" parent="1">
          <mxGeometry width="50" height="50" relative="1" as="geometry">
            <mxPoint x="492.1" y="150" as="sourcePoint" />
            <mxPoint x="740" y="240" as="targetPoint" />
            <Array as="points">
              <mxPoint x="740" y="150" />
            </Array>
          </mxGeometry>
        </mxCell>
        <mxCell id="Uu7dBt2NGrK-YpvzXJLN-29" value="tracking#" style="swimlane;fontStyle=0;childLayout=stackLayout;horizontal=1;startSize=30;horizontalStack=0;resizeParent=1;resizeParentMax=0;resizeLast=0;collapsible=1;marginBottom=0;" vertex="1" parent="1">
          <mxGeometry x="590" y="119" width="70" height="60" as="geometry" />
        </mxCell>
        <mxCell id="Uu7dBt2NGrK-YpvzXJLN-30" value="tracking1&#xa;tracking 2" style="text;strokeColor=none;fillColor=none;align=left;verticalAlign=middle;spacingLeft=4;spacingRight=4;overflow=hidden;points=[[0,0.5],[1,0.5]];portConstraint=eastwest;rotatable=0;" vertex="1" parent="Uu7dBt2NGrK-YpvzXJLN-29">
          <mxGeometry y="30" width="70" height="30" as="geometry" />
        </mxCell>
        <mxCell id="Uu7dBt2NGrK-YpvzXJLN-36" style="edgeStyle=orthogonalEdgeStyle;rounded=0;orthogonalLoop=1;jettySize=auto;html=1;entryX=0;entryY=0.5;entryDx=0;entryDy=0;" edge="1" parent="1" target="Uu7dBt2NGrK-YpvzXJLN-6">
          <mxGeometry relative="1" as="geometry">
            <mxPoint x="183" y="299" as="sourcePoint" />
            <mxPoint x="290" y="299" as="targetPoint" />
          </mxGeometry>
        </mxCell>
        <mxCell id="Uu7dBt2NGrK-YpvzXJLN-41" style="edgeStyle=orthogonalEdgeStyle;rounded=0;orthogonalLoop=1;jettySize=auto;html=1;" edge="1" parent="1">
          <mxGeometry relative="1" as="geometry">
            <mxPoint x="500" y="299" as="sourcePoint" />
            <mxPoint x="700" y="299" as="targetPoint" />
          </mxGeometry>
        </mxCell>
        <mxCell id="Uu7dBt2NGrK-YpvzXJLN-44" value="Tracking status" style="swimlane;childLayout=stackLayout;horizontal=1;startSize=30;horizontalStack=0;rounded=1;fontSize=12;fontStyle=0;strokeWidth=2;resizeParent=0;resizeLast=1;shadow=0;dashed=0;align=center;" vertex="1" parent="1">
          <mxGeometry x="530" y="269" width="80" height="91" as="geometry" />
        </mxCell>
        <mxCell id="Uu7dBt2NGrK-YpvzXJLN-45" value="+Attribute1&#xa;+Attribute2&#xa;+Attribute3" style="align=left;strokeColor=none;fillColor=none;spacingLeft=4;fontSize=12;verticalAlign=top;resizable=0;rotatable=0;part=1;" vertex="1" parent="Uu7dBt2NGrK-YpvzXJLN-44">
          <mxGeometry y="30" width="80" height="61" as="geometry" />
        </mxCell>
        <mxCell id="Uu7dBt2NGrK-YpvzXJLN-49" style="edgeStyle=orthogonalEdgeStyle;rounded=0;orthogonalLoop=1;jettySize=auto;html=1;" edge="1" parent="1">
          <mxGeometry relative="1" as="geometry">
            <mxPoint x="170" y="460" as="sourcePoint" />
            <mxPoint x="410" y="460" as="targetPoint" />
          </mxGeometry>
        </mxCell>
        <mxCell id="Uu7dBt2NGrK-YpvzXJLN-53" style="edgeStyle=orthogonalEdgeStyle;rounded=0;orthogonalLoop=1;jettySize=auto;html=1;" edge="1" parent="1">
          <mxGeometry relative="1" as="geometry">
            <mxPoint x="493" y="450" as="sourcePoint" />
            <mxPoint x="740" y="340" as="targetPoint" />
          </mxGeometry>
        </mxCell>
        <mxCell id="Uu7dBt2NGrK-YpvzXJLN-54" value="tracking-number-pipeline" style="text;html=1;align=center;verticalAlign=middle;resizable=0;points=[];autosize=1;strokeColor=none;fillColor=none;fontSize=12;" vertex="1" parent="1">
          <mxGeometry x="365" y="180" width="150" height="20" as="geometry" />
        </mxCell>
        <mxCell id="Uu7dBt2NGrK-YpvzXJLN-55" value="USPS scheduler" style="text;html=1;align=center;verticalAlign=middle;resizable=0;points=[];autosize=1;strokeColor=none;fillColor=none;fontSize=12;" vertex="1" parent="1">
          <mxGeometry x="400" y="320" width="100" height="20" as="geometry" />
        </mxCell>
        <mxCell id="Uu7dBt2NGrK-YpvzXJLN-56" value="Shipment Tracking API" style="text;html=1;align=center;verticalAlign=middle;resizable=0;points=[];autosize=1;strokeColor=none;fillColor=none;fontSize=12;" vertex="1" parent="1">
          <mxGeometry x="388.55" y="480" width="140" height="20" as="geometry" />
        </mxCell>
      </root>
    </mxGraphModel>
  </diagram>
</mxfile>
